<?xml version="1.0" encoding="UTF-8" standalone="no"?>
<!-- Created with Inkscape (http://www.inkscape.org/) -->

<svg
   xmlns:dc="http://purl.org/dc/elements/1.1/"
   xmlns:cc="http://creativecommons.org/ns#"
   xmlns:rdf="http://www.w3.org/1999/02/22-rdf-syntax-ns#"
   xmlns:svg="http://www.w3.org/2000/svg"
   xmlns="http://www.w3.org/2000/svg"
   xmlns:sodipodi="http://sodipodi.sourceforge.net/DTD/sodipodi-0.dtd"
   xmlns:inkscape="http://www.inkscape.org/namespaces/inkscape"
   width="500mm"
   height="500mm"
   viewBox="0 0 500 500"
   version="1.1"
   id="svg12585"
   inkscape:version="0.92.1 r15371"
   sodipodi:docname="happyfall_truck.svg">
  <defs
     id="defs12579">
    <inkscape:path-effect
       effect="skeletal"
       id="path-effect4764"
       is_visible="true"
       pattern="M 0,5 C 0,2.24 2.24,0 5,0 7.76,0 10,2.24 10,5 10,7.76 7.76,10 5,10 2.24,10 0,7.76 0,5 Z"
       copytype="single_stretched"
       prop_scale="0.26458333"
       scale_y_rel="false"
       spacing="0"
       normal_offset="0"
       tang_offset="0"
       prop_units="false"
       vertical_pattern="false"
       fuse_tolerance="0" />
    <inkscape:path-effect
       effect="spiro"
       id="path-effect4762"
       is_visible="true" />
    <inkscape:path-effect
       effect="skeletal"
       id="path-effect4758"
       is_visible="true"
       pattern="M 0,5 C 0,2.24 2.24,0 5,0 7.76,0 10,2.24 10,5 10,7.76 7.76,10 5,10 2.24,10 0,7.76 0,5 Z"
       copytype="single_stretched"
       prop_scale="0.26458333"
       scale_y_rel="false"
       spacing="0"
       normal_offset="0"
       tang_offset="0"
       prop_units="false"
       vertical_pattern="false"
       fuse_tolerance="0" />
    <inkscape:path-effect
       effect="spiro"
       id="path-effect4756"
       is_visible="true" />
    <inkscape:path-effect
       effect="skeletal"
       id="path-effect4752"
       is_visible="true"
       pattern="M 0,5 C 0,2.24 2.24,0 5,0 7.76,0 10,2.24 10,5 10,7.76 7.76,10 5,10 2.24,10 0,7.76 0,5 Z"
       copytype="single_stretched"
       prop_scale="0.26458333"
       scale_y_rel="false"
       spacing="0"
       normal_offset="0"
       tang_offset="0"
       prop_units="false"
       vertical_pattern="false"
       fuse_tolerance="0" />
    <inkscape:path-effect
       effect="spiro"
       id="path-effect4750"
       is_visible="true" />
    <inkscape:path-effect
       effect="skeletal"
       id="path-effect4746"
       is_visible="true"
       pattern="M 0,5 C 0,2.24 2.24,0 5,0 7.76,0 10,2.24 10,5 10,7.76 7.76,10 5,10 2.24,10 0,7.76 0,5 Z"
       copytype="single_stretched"
       prop_scale="0.26458333"
       scale_y_rel="false"
       spacing="0"
       normal_offset="0"
       tang_offset="0"
       prop_units="false"
       vertical_pattern="false"
       fuse_tolerance="0" />
    <inkscape:path-effect
       effect="spiro"
       id="path-effect4744"
       is_visible="true" />
    <inkscape:path-effect
       effect="skeletal"
       id="path-effect4740"
       is_visible="true"
       pattern="M 0,5 C 0,2.24 2.24,0 5,0 7.76,0 10,2.24 10,5 10,7.76 7.76,10 5,10 2.24,10 0,7.76 0,5 Z"
       copytype="single_stretched"
       prop_scale="0.4"
       scale_y_rel="false"
       spacing="0"
       normal_offset="0"
       tang_offset="0"
       prop_units="false"
       vertical_pattern="false"
       fuse_tolerance="0" />
    <inkscape:path-effect
       effect="spiro"
       id="path-effect4738"
       is_visible="true" />
    <inkscape:path-effect
       effect="skeletal"
       id="path-effect4734"
       is_visible="true"
       pattern="M 0,5 C 0,2.24 2.24,0 5,0 7.76,0 10,2.24 10,5 10,7.76 7.76,10 5,10 2.24,10 0,7.76 0,5 Z"
       copytype="single_stretched"
       prop_scale="0.4"
       scale_y_rel="false"
       spacing="0"
       normal_offset="0"
       tang_offset="0"
       prop_units="false"
       vertical_pattern="false"
       fuse_tolerance="0" />
    <inkscape:path-effect
       effect="spiro"
       id="path-effect4732"
       is_visible="true" />
    <inkscape:path-effect
       effect="skeletal"
       id="path-effect4722"
       is_visible="true"
       pattern="M 0,5 C 0,2.24 2.24,0 5,0 7.76,0 10,2.24 10,5 10,7.76 7.76,10 5,10 2.24,10 0,7.76 0,5 Z"
       copytype="single_stretched"
       prop_scale="0.4"
       scale_y_rel="false"
       spacing="0"
       normal_offset="0"
       tang_offset="0"
       prop_units="false"
       vertical_pattern="false"
       fuse_tolerance="0" />
    <inkscape:path-effect
       effect="spiro"
       id="path-effect4720"
       is_visible="true" />
    <inkscape:path-effect
       effect="skeletal"
       id="path-effect4716"
       is_visible="true"
       pattern="M 0,5 C 0,2.24 2.24,0 5,0 7.76,0 10,2.24 10,5 10,7.76 7.76,10 5,10 2.24,10 0,7.76 0,5 Z"
       copytype="single_stretched"
       prop_scale="0.4"
       scale_y_rel="false"
       spacing="0"
       normal_offset="0"
       tang_offset="0"
       prop_units="false"
       vertical_pattern="false"
       fuse_tolerance="0" />
    <inkscape:path-effect
       effect="spiro"
       id="path-effect4714"
       is_visible="true" />
    <inkscape:path-effect
       fuse_tolerance="0"
       vertical_pattern="false"
       prop_units="false"
       tang_offset="0"
       normal_offset="0"
       spacing="0"
       scale_y_rel="false"
       prop_scale="0.26458333"
       copytype="single_stretched"
       pattern="m -205.99703,5 c 0,-2.76 2.24,-5 5,-5 2.76,0 5,2.24 5,5 0,2.76 -2.24,5 -5,5 -2.76,0 -5,-2.24 -5,-5 z"
       is_visible="true"
       id="path-effect4557"
       effect="skeletal" />
    <inkscape:path-effect
       is_visible="true"
       id="path-effect4555"
       effect="spiro" />
    <inkscape:path-effect
       effect="skeletal"
       id="path-effect4551"
       is_visible="true"
       pattern="M 0,5 C 0,2.24 2.24,0 5,0 7.76,0 10,2.24 10,5 10,7.76 7.76,10 5,10 2.24,10 0,7.76 0,5 Z"
       copytype="single_stretched"
       prop_scale="0.26458333"
       scale_y_rel="false"
       spacing="0"
       normal_offset="0"
       tang_offset="0"
       prop_units="false"
       vertical_pattern="false"
       fuse_tolerance="0" />
    <inkscape:path-effect
       effect="spiro"
       id="path-effect4549"
       is_visible="true" />
    <inkscape:path-effect
       effect="spiro"
       id="path-effect5095"
       is_visible="true" />
    <inkscape:path-effect
       effect="spiro"
       id="path-effect5078"
       is_visible="true" />
    <inkscape:path-effect
       effect="envelope"
       id="path-effect12522"
       is_visible="true"
       yy="true"
       xx="true"
       bendpath1="m -418.36416,152.30277 c 6.50728,-2.75726 12.75667,-4.34321 18.93467,-4.99484 6.62119,-0.69838 13.16036,-0.32357 19.84708,0.8327 5.81087,1.00482 10.90595,-1.36445 15.63242,-0.81355 6.56448,0.76513 12.3285,2.82622 17.84956,4.97569"
       bendpath2="m -346.10043,152.30277 v 27.58485"
       bendpath3="m -418.36416,179.88762 c 11.92081,10.39735 24.64047,12.29028 37.31704,10.99317 6.64901,-0.68034 13.27478,-0.62093 19.5799,-2.72625 5.37483,-1.79469 10.53924,-4.50826 15.36679,-8.26692"
       bendpath4="m -418.36416,152.30277 v 27.58485"
       bendpath1-nodetypes="csssc"
       bendpath3-nodetypes="cssc" />
    <inkscape:path-effect
       is_visible="true"
       id="path-effect12465"
       effect="spiro" />
    <inkscape:path-effect
       is_visible="true"
       id="path-effect11755"
       effect="spiro" />
    <inkscape:path-effect
       miter_limit="100"
       jointype="extrapolated"
       smoothing="0.5"
       end_offset="0.65021"
       attach_start="0.031794078"
       stroke_width="0.26458332"
       is_visible="true"
       id="path-effect12045"
       effect="taper_stroke" />
    <inkscape:path-effect
       effect="taper_stroke"
       id="path-effect12049"
       is_visible="true"
       stroke_width="0.26458332"
       attach_start="0.031794078"
       end_offset="0.65021"
       smoothing="0.5"
       jointype="extrapolated"
       miter_limit="100" />
    <inkscape:path-effect
       effect="taper_stroke"
       id="path-effect12053"
       is_visible="true"
       stroke_width="0.26458332"
       attach_start="0.031794078"
       end_offset="0.65021"
       smoothing="0.5"
       jointype="extrapolated"
       miter_limit="100" />
    <inkscape:path-effect
       miter_limit="100"
       jointype="extrapolated"
       smoothing="0.5"
       end_offset="0.65021"
       attach_start="0.031794078"
       stroke_width="0.26458332"
       is_visible="true"
       id="path-effect12057"
       effect="taper_stroke" />
    <inkscape:path-effect
       is_visible="true"
       id="path-effect5847"
       effect="spiro" />
    <inkscape:path-effect
       is_visible="true"
       id="path-effect5831"
       effect="spiro" />
    <inkscape:path-effect
       is_visible="true"
       id="path-effect5042"
       effect="spiro" />
    <inkscape:path-effect
       is_visible="true"
       id="path-effect5019"
       effect="spiro" />
    <inkscape:path-effect
       is_visible="true"
       id="path-effect5007"
       effect="spiro" />
    <inkscape:path-effect
       is_visible="true"
       id="path-effect5003"
       effect="spiro" />
  </defs>
  <sodipodi:namedview
     id="base"
     pagecolor="#545454"
     bordercolor="#666666"
     borderopacity="1.0"
     inkscape:pageopacity="0"
     inkscape:pageshadow="2"
     inkscape:zoom="0.1767767"
     inkscape:cx="1563.3005"
     inkscape:cy="487.03067"
     inkscape:document-units="mm"
     inkscape:current-layer="layer1"
     showgrid="false"
     inkscape:window-width="1366"
     inkscape:window-height="715"
     inkscape:window-x="-8"
     inkscape:window-y="-8"
     inkscape:window-maximized="1" />
  <metadata
     id="metadata12582">
    <rdf:RDF>
      <cc:Work
         rdf:about="">
        <dc:format>image/svg+xml</dc:format>
        <dc:type
           rdf:resource="http://purl.org/dc/dcmitype/StillImage" />
        <dc:title></dc:title>
      </cc:Work>
    </rdf:RDF>
  </metadata>
  <g
     inkscape:label="Layer 1"
     inkscape:groupmode="layer"
     id="layer1"
     transform="translate(0,203)">
    <g
       id="g4722"
       transform="matrix(1.0728589,0,0,1.0728589,-18.214641,12.173628)">
      <path
         sodipodi:nodetypes="ccccsccccccccccccccccccccccccscaaccccccccccccccsccccccsccccccccccccccccsccccccccccccccccccccccccccccccscsccccccscccccccsccccccc"
         inkscape:connector-curvature="0"
         id="path4703"
         d="m 166.38113,-152.46868 -5.3e-4,5.3e-4 v 0.002 c -4.53378,0.0282 -9.13438,0.58681 -13.87202,1.6831 -3.43251,0.79425 -5.29927,1.40036 -8.77776,2.84789 -4.20014,1.74784 -7.68106,4.10473 -10.6376,7.20369 -1.25827,1.3189 -2.82167,3.2507 -3.22719,3.98684 -0.27927,0.50701 -0.43878,0.5388 -0.70228,0.1416 -0.13166,-0.19838 -0.0871,0.0857 0.11782,0.75396 0.31901,1.04063 0.31661,1.12234 -0.0687,2.71146 -0.0363,0.14964 -0.0785,0.29479 -0.11679,0.44286 2.24982,-0.43052 5.44794,-0.79724 9.52397,-0.76894 1.23424,0.009 2.54747,0.0532 3.93774,0.14314 10.92134,0.70613 26.77972,4.53593 41.08845,16.28635 6.68101,5.49671 12.69922,12.50571 17.39119,20.838002 1.2734,2.261364 2.40539,4.554529 3.41116,6.865215 0.0688,0.157527 0.137,0.315153 0.20464,0.472839 0.31443,0.735912 0.61746,1.473383 0.9064,2.212266 -5.3e-4,-0.0059 -5.3e-4,-0.01217 -0.001,-0.0181 0.51448,1.306247 0.86981,2.245008 1.21905,3.337782 1.7e-4,5.29e-4 2.6e-4,0.0011 5.3e-4,0.0016 -0.004,-0.003 -0.008,-0.0058 -0.0124,-0.0088 1.92013,5.680313 3.1017,11.398186 3.59099,16.964334 1.50583,17.290071 -3.51628,31.599161 -8.38553,40.534484 -0.94272,1.729925 -1.87441,3.267869 -2.76883,4.627615 h 7.06521 c 0.006,0.02791 0.0141,0.05083 0.0196,0.06202 0.0386,0.06281 1.41349,0.106812 3.45508,0.134355 l 1.387,0.0082 c 14.58209,-13.61432 21.1507,-31.683959 19.1363,-52.684647 -0.52333,-5.455836 -2.23785,-14.161289 -3.74189,-18.996258 -2.19164,-7.045322 -4.79038,-13.620767 -7.89358,-20.123837 -2.57585,-5.39797 -5.69768,-10.52664 -8.86354,-15.60113 -0.50007,-0.80155 -1.1986,-1.818 -1.59783,-2.34094 -0.17488,-0.22906 -0.65448,-0.89336 -1.06609,-1.4764 -1.16137,-1.64511 -4.889,-5.75799 -6.9789,-7.7003 -5.01376,-4.65962 -10.41931,-7.83567 -17.11265,-10.05572 -1.62934,-0.54041 -5.60458,-1.48146 -7.46724,-1.76733 -3.03612,-0.46597 -3.7623,-0.54464 -6.03374,-0.65371 -1.04,-0.0499 -2.08275,-0.0721 -3.12901,-0.0656 z m -85.107988,21.14703 v 5.3e-4 c -3.072972,0.0436 -6.355165,0.44101 -10.234517,1.23352 -7.539114,1.54019 -14.730608,4.30205 -20.701579,7.94938 -7.613717,4.65078 -13.318035,10.26386 -17.568436,17.28732 -2.628608,4.34356 -4.54942,8.947164 -6.722587,16.112713 -2.718023,8.962057 -3.54023,16.39774 -2.978629,26.944584 0.33431,6.27843 1.028973,11.194177 2.445845,17.319387 1.863564,8.056377 4.969316,16.695817 8.402071,23.527252 l 6.742741,-0.0037 c 7.65516,-0.004 9.628737,-0.04199 10.114628,-0.258365 h 3.861779 c -5.001381,-7.099512 -9.888762,-17.133279 -11.319205,-29.670031 -1.059726,-9.36924 -0.06756,-19.64115 3.57446,-29.740833 2.781665,-7.713811 6.835899,-14.55447 11.692826,-20.265957 11.517905,-13.51099 26.161076,-19.35424 36.44997,-21.37802 2.188709,-0.43049 4.181249,-0.70183 5.976901,-0.86506 0.0152,0.0168 0.0323,0.0335 0.0475,0.0501 -1.772112,-1.95036 -3.150762,-3.83634 -3.374472,-4.80333 -0.0592,-0.25568 -0.15227,-0.34535 -0.2744,-0.26303 -0.10175,0.0687 -1.21913,-0.23247 -2.48254,-0.66869 -4.031458,-1.39201 -9.229378,-2.44586 -12.347048,-2.50425 -0.431609,-0.008 -0.866352,-0.009 -1.305348,-0.004 z m 47.370238,0.19276 -5.3e-4,0.002 c -0.78145,2.44466 -1.87349,4.72494 -3.39101,7.07346 -0.16447,0.25457 -0.33136,0.50414 -0.49868,0.7488 1.41798,0.759 3.01092,1.69076 4.75579,2.82463 6.83045,4.43869 15.72039,11.8944 23.26783,23.152075 3.77741,5.641737 7.05103,12.067858 9.5374,19.191592 2.68875,7.703571 4.15586,15.359128 4.6979,22.568125 0.99223,13.091239 -1.0938,23.9953 -3.50831,31.494703 -0.37348,1.160012 -0.74974,2.221574 -1.12241,3.204977 27.32732,-0.03199 31.9075,-0.11086 32.11483,-0.342609 h 1.70481 c 0.89186,-1.741435 1.86245,-3.754279 2.85357,-6.051814 3.85718,-8.941594 7.84514,-22.619573 6.05131,-38.5894 -1.01129,-9.074528 -3.90335,-18.575178 -8.97568,-27.584857 -4.34997,-7.726762 -9.85062,-14.281902 -15.93235,-19.489802 -12.9842,-11.14095 -27.66447,-15.4803 -37.99923,-17.06149 -6.02576,-0.92193 -10.65629,-1.0625 -13.55524,-1.13998 z m -4.62504,8.85424 c -0.0319,0.043 -0.0632,0.0853 -0.0951,0.12764 0.032,-0.0426 0.0629,-0.0844 0.0951,-0.12764 z m -21.9692,0.25373 c 0.0637,0.0657 0.12792,0.13036 0.19223,0.19585 -0.0641,-0.0651 -0.12873,-0.13051 -0.19223,-0.19585 z m 21.17287,0.76584 v 0.002 c -0.69251,0.84229 -1.31699,1.47814 -1.75442,1.75855 -1.70321,1.09168 -3.52399,1.85826 -5.49579,2.31459 -2.09618,0.48515 -3.27108,0.55447 -5.29632,0.31264 -0.58347,-0.0697 -1.04892,-0.13298 -1.45882,-0.19896 -1.15915,2.10026 -2.55855,4.63815 -4.20801,7.9034 -4.18039,8.27555 -9.027962,19.806191 -11.517132,34.113161 -0.571056,3.276979 -1.006692,6.657983 -1.287777,10.133232 -1.378056,17.037526 1.295693,31.705047 4.391467,42.601515 0.14287,0.50292 0.2855,0.986684 0.42788,1.47021 8.499222,0.004 18.150732,7.9e-5 31.523652,-0.0037 12.93121,-0.004 22.55191,-0.01032 30.95315,-0.01905 0.27397,-1.222984 0.55911,-2.541641 0.84595,-4.02299 1.44815,-7.478765 2.71088,-17.861412 1.39526,-30.20179 -0.72772,-6.784578 -2.22114,-13.960218 -4.74183,-21.19249 -2.33189,-6.690563 -5.30552,-12.748574 -8.69921,-18.133776 -6.7889,-10.787052 -14.70844,-18.361832 -20.75739,-23.387212 -1.60901,-1.33674 -3.04213,-2.4632 -4.32066,-3.44888 z m -19.95693,0.4408 c 0.009,0.009 0.0178,0.0178 0.0269,0.0263 -2.1521,0.43012 -4.652402,1.01039 -7.452782,1.83504 -9.542215,2.80996 -22.862676,8.96611 -33.107539,21.531496 -4.344527,5.314014 -7.991472,11.628247 -10.544577,18.712553 -3.341721,9.272619 -4.393467,18.688291 -3.645254,27.306352 1.086956,12.677087 5.896067,22.994805 10.495999,30.195043 h 3.49126 c 0.317253,0.276093 2.974194,0.352134 30.375407,0.365363 -0.02755,-0.07101 -0.05518,-0.136763 -0.08268,-0.208253 -4.205147,-10.932584 -7.680285,-26.364327 -6.227011,-44.317708 0.296516,-3.663103 0.783739,-7.226348 1.43764,-10.67326 2.854524,-15.025235 8.624445,-26.909636 13.811047,-34.937396 1.82643,-2.82694 3.5246,-5.10221 4.99401,-6.88331 0.51135,0.34892 0.84389,0.48567 1.45003,0.61185 -0.87561,-0.22563 -1.41168,-0.55166 -2.30011,-1.22473 -0.87974,-0.66644 -1.81252,-1.47424 -2.72232,-2.33939 z"
         style="fill:#ff9955;fill-opacity:1;stroke-width:0.15913244" />
      <path
         inkscape:connector-curvature="0"
         id="path4686"
         transform="matrix(0.26458333,0,0,0.26458333,0,-203)"
         d="m 958.54883,428.63477 c -25.8141,2.55935 -65.36779,24.13842 -75.45508,46.24804 -3.40233,8.36691 -8.68815,17.0846 -9.2168,29.20899 -5.89459,59.21439 -1.18031,122.54706 -4.375,183.00195 -0.58042,0.59048 -31.60825,0.90385 -57.0625,0.86133 l -19.71289,-0.11524 c -7.71624,-0.10431 -12.91285,-0.27271 -13.05859,-0.50976 -0.0189,-0.0423 -0.053,-0.12697 -0.0742,-0.23242 h -44.49023 c -1.03522,1.15717 -29.47005,1.30778 -249.25782,1.37109 -231.48567,0.0661 -247.92353,0.0155 -249.51562,-1.37109 h -44.43164 c -1.83644,0.81789 -9.29758,0.96433 -38.23047,0.97461 l -37.87109,0.0156 c -22.541463,0.76596 -24.615519,43.11358 -1.30274,47.75 l -0.22266,102.5332 -0.2207,100.19141 c -0.22386,1.6241 -0.44506,2.41142 -2.33789,2.44336 l -7.72656,0.33594 c -10.972881,0.47705 -13.459494,1.40108 -18.810549,6.99414 -3.89266,3.97927 -2.984852,9.55404 -3.18164,19.46679 -0.385289,11.58135 -0.250087,17.5865 0.4375,19.52539 0.571128,1.61016 2.853381,4.23891 5.36914,6.18555 4.019717,3.56285 9.37069,3.14749 30.644529,3.38477 19.25533,0 21.8823,1.09745 29.88281,-3.5 4.41534,-4.35009 5.21834,-7.22548 5.75782,-12.66406 1.72991,-8.61022 3.96372,-17.12001 6.68945,-25.46876 12.34691,-37.81655 34.63301,-71.78521 61.96875,-100.32031 46.25069,-48.27983 107.7791,-81.68595 173.56836,-93.72265 18.73123,-3.42705 37.83527,-5.05993 56.91992,-4.88868 57.25391,0.51394 114.3495,17.30143 160.81641,50.86133 26.27758,18.97837 49.01396,43.08818 65.5,71.12891 16.49064,28.04874 26.60712,59.98017 28.14648,92.59375 0.63878,13.94593 4.63929,15.86853 17.21094,15 h 195.666 V 985.75 h 0.084 c 0.73489,-48.81317 1.18312,-97.63084 1.32617,-146.44922 0.16592,-56.48054 -0.0635,-112.98074 0,-169.50195 0.0404,-35.33024 0.19418,-70.71231 1.36719,-106.10742 0.35641,-10.76091 0.79647,-22.52121 5.94336,-33.39258 4.87892,-10.30566 13.38356,-18.19488 22.8125,-23.68945 9.3925,-5.47348 19.64346,-8.6797 29.70898,-11.13477 14.68222,-3.58144 29.63563,-5.72398 44.65823,-6.68555 5.6325,-0.36053 11.2743,-0.55515 16.916,-0.59765 9.4033,-0.0689 18.8044,0.28762 28.1504,1.00586 26.7838,2.05865 53.0373,7.03631 79.0898,11.68359 19.2217,3.42875 39.8426,6.94355 57.2402,18.51953 14.9775,9.96581 25.7875,24.97293 32.5899,41.17578 7.7608,18.48611 10.4909,38.24324 12.6582,57.40821 2.0395,18.03677 3.641,36.12214 4.8047,54.23632 l -4.8946,0.31836 h 4.9004 c 0,94.14637 -4e-4,188.28958 0,282.4375 0.3096,18.70088 6.0637,8.11177 8.4922,-0.71094 12.6101,-40.37072 37.8864,-76.30608 69.5469,-104.16796 41.7783,-36.76577 94.1535,-59.85707 148.1758,-71.69141 36.7434,-8.04915 74.2696,-11.07245 111.7304,-11.32617 3.1217,-0.0227 6.241,-0.0232 9.3614,-0.0156 9.3606,0.0491 18.7136,0.26053 28.0449,0.59766 29.4051,1.06288 59.5143,3.42784 87.9648,13.31641 8.6408,3.00317 16.9195,6.63319 25.0606,10.32031 -0.1947,-4.62112 -0.3687,-10.35464 -0.4981,-17.62305 -2.5413,-28.9895 -2.3366,-38.76152 -8.8222,-72.86719 -9.4709,-40.39816 -40.4851,-53.18469 -78.0371,-57.45117 -3.944,-0.77187 -20.5185,-1.71952 -44.4121,-2.53515 l -283.375,-13.9961 c -40.9817,-1.36178 -40.0483,-1.21386 -43.4375,-6.78711 -0.9159,-1.50589 -1.9087,-4.93111 -2.2071,-7.60937 -4.7607,-25.61098 -17.5589,-58.1581 -25.2148,-79.76758 -7.6624,-16.52075 -21.7212,-39.44714 -42.5352,-58.44141 -62.3,-56.91861 -184.3008,-42.59289 -259.21675,-45.58398 z m 84.90627,69.4707 c -20.0285,0.14608 -39.9729,2.27637 -59.30666,6.99219 -9.62948,2.34883 -18.94536,5.33662 -27.06836,10.07031 -8.08664,4.71243 -15.0399,11.34608 -18.83594,19.36328 -4.02436,8.5013 -4.63704,18.8231 -4.99023,29.48437 -1.16705,35.20529 -1.32463,70.47856 -1.36719,105.78711 -0.0635,56.48674 0.16592,112.9945 0,169.52149 -0.14287,48.8081 -0.59008,97.61535 -1.32422,146.41797 h 305.1719 c 9.952,1.5e-4 12.5455,-4.65658 12.2695,-14.06836 -6e-4,-99.67306 -7e-4,-199.34607 0,-299.01758 -1.1522,-17.8893 -2.7414,-35.75171 -4.7559,-53.56445 -2.1463,-18.98259 -4.8474,-37.77986 -11.9472,-54.69141 -6.1934,-14.75241 -15.9526,-28.11616 -28.9258,-36.74805 -15.1198,-10.06052 -34.259,-13.58937 -53.4883,-17.01953 -26.1203,-4.65924 -52.0602,-9.54841 -78.1172,-11.55078 -9.0895,-0.69926 -18.2105,-1.03989 -27.3144,-0.97656 z m 35.9316,30.5 c 29.3223,-0.0492 59.4563,2.10698 84.8164,7.4082 23.335,5.51104 28.8855,13.63836 35.4727,32.63867 9.0411,26.07087 17.6259,49.78966 18.748,74.96875 -0.3307,18.70017 -12.1352,28.92889 -27.8613,28.56836 l -197.50586,0.0703 c -18.27696,0 -23.82373,-4.64901 -23.78125,-24.01563 -6.8e-4,-20.00087 -0.20523,-48.45269 0,-60.01953 0.61451,-10.16634 -0.17165,-28.13273 1.75977,-39.30469 3.20394,-9.03182 9.92444,-11.08954 19.91211,-12.99804 23.01743,-4.36696 55.20753,-7.25903 88.43943,-7.3125 z M 974.61328,713.14648 h 41.98832 c 3.8611,0 6.9707,3.1077 6.9707,6.96875 v 3.63282 c 0,3.8612 -3.1096,6.96679 -6.9707,6.96679 h -41.98832 c -3.86101,0 -6.9668,-3.10559 -6.9668,-6.96679 v -3.63282 c 0,-3.86105 3.10579,-6.96875 6.9668,-6.96875 z m -521.49414,53.10547 c -18.44908,-0.17159 -36.9199,1.40236 -55.02539,4.71485 -63.66717,11.64873 -123.39959,44.07137 -168.18945,90.82617 -26.47703,27.63881 -47.89862,60.40877 -59.69532,96.54101 -3.13723,9.60908 -5.59396,19.43577 -7.34765,29.39063 -0.92412,6.76293 9.65782,13.82929 11.11328,14.38479 5.02575,3.6899 12.64909,7.1613 17.9375,9.2246 37.74887,12.3146 75.89782,25.4836 116.08594,27.2402 11.28185,0.4803 15.26066,0.6231 23.50195,-8.2969 3.49566,-4.3727 3.7164,-4.0341 4.85156,-13.0585 0,-77.95485 63.30508,-141.25982 141.25977,-141.25982 77.95476,0 141.25195,63.30482 141.25195,141.25982 -0.0151,11.4038 -0.56817,34.8213 7.62305,34.1347 0.32882,0.3967 17.72995,0.6449 64.73828,0.7852 5.54714,0.2449 5.97992,-1.7706 6.21875,-8.8692 -0.0741,-14.9613 0.0392,-29.9249 0.33398,-44.88278 0.18104,-9.13837 0.41806,-18.14894 0,-27.00781 C 696.32022,940.50776 686.7108,910.07676 670.99023,883.33789 655.26502,856.59112 633.48318,833.45168 608.23828,815.21875 563.63045,783.0016 508.46635,766.76924 453.11914,766.25391 Z M 1597.668,776.95312 c -37.548,0.17008 -74.9682,3.12639 -111.4004,11.10743 -52.6955,11.54377 -103.5189,34.03362 -143.7539,69.4414 -34.1531,30.0556 -60.4162,69.81813 -70.4551,113.86524 -4.2858,18.80402 -5.6519,38.33901 -6.1524,57.98631 -0.1976,7.5682 -0.2525,15.1353 -0.1894,22.7051 l 140.8516,-0.074 c 11.192,-0.6675 22.6017,-13.6361 23.4121,-34.7852 0,-77.95463 63.2975,-141.25779 141.2519,-141.25779 75.9632,0 138.0158,60.10777 141.1367,135.31059 -0.3526,7.244 2.9636,8.8475 8.5313,8.9628 5.2436,0.2393 8.5804,3.3397 13.5547,4.7637 6.7075,1.864 14.213,3.0831 22.1289,-0.019 5.6907,-2.6353 11.8917,-6.0971 13.1953,-9.2442 12.6765,-22.77252 23.3823,-48.66441 31.6172,-71.1523 3.0331,-9.83478 6.5091,-23.91632 6.541,-40.58203 0.6099,-27.17189 -5.0909,-45.84312 -20.166,-68.9668 -1.6167,-3.40822 -7.0974,-9.00068 -16.2852,-16.62305 -10.225,-8.48258 -11.8819,-9.65138 -17.9804,-12.65429 -1.2908,-0.63553 -2.5273,-1.30912 -3.5879,-1.92578 -0.7989,-0.36473 -1.5979,-0.72611 -2.3965,-1.08985 -9.8651,-4.49503 -19.5958,-8.94 -29.5352,-12.39453 -26.8567,-9.33464 -55.9613,-11.7208 -85.0703,-12.77344 -9.2408,-0.33448 -18.4905,-0.54525 -27.7363,-0.58789 -2.504,-0.0151 -5.0085,-0.0151 -7.5117,0 z M 474.34375,824.49023 c 10.98157,0.0151 21.43967,1.01194 31.21289,2.78125 44.52832,8.11813 66.08669,29.01117 65.42188,30.10743 -1.33478,2.20093 -26.46315,-13.12042 -67.25782,-18.14258 -21.04864,-2.61918 -44.97802,-1.91181 -70.72265,4.23828 -19.2573,4.6004 -36.70524,11.58056 -51.87891,19.55469 -44.23299,23.29115 -67.20533,52.43602 -69.47461,50.63867 -1.24587,-0.98676 16.03879,-34.51325 63.20899,-61.94336 15.75134,-9.17469 34.23637,-17.04356 54.8789,-21.95313 15.50752,-3.68825 30.49215,-5.29814 44.61133,-5.28125 z m 1095.64065,0 c 10.9816,0.0151 21.4396,1.01194 31.2129,2.78125 44.5283,8.11813 66.0867,29.01117 65.4218,30.10743 -1.3347,2.20093 -26.467,-13.12042 -67.2617,-18.14258 -21.0486,-2.61918 -44.9741,-1.91181 -70.7187,4.23828 -19.2574,4.6004 -36.7053,11.58056 -51.8789,19.55469 -44.233,23.29115 -67.2073,52.43602 -69.4766,50.63867 -1.2458,-0.98676 16.0369,-34.51325 63.207,-61.94336 15.7514,-9.17469 34.2403,-17.04356 54.8828,-21.95313 15.5076,-3.68825 30.4922,-5.29814 44.6114,-5.28125 z M 477.61133,929.36133 c -48.54958,0 -87.83789,39.28617 -87.83789,87.83597 0,48.5494 39.28831,87.8359 87.83789,87.8359 58.91229,-0.478 86.26288,-39.278 87.83203,-87.8359 7e-5,-48.5498 -39.28249,-87.83597 -87.83203,-87.83597 z m 1093.62697,0.002 c -48.5496,0 -87.8379,39.28628 -87.8379,87.83587 0,48.5497 39.2883,87.8361 87.8379,87.8361 58.9123,-0.4782 86.2629,-39.2781 87.832,-87.8361 10e-5,-48.54959 -39.2825,-87.83587 -87.832,-87.83587 z M 132.67969,944.25781 v 0.002 c 6.85689,-0.0408 7.58344,0.31805 6.30078,1.86328 -1.1463,1.38107 -0.69717,1.70806 4.15625,3.00976 3.05811,0.82042 3.71484,1.36754 3.71484,3.08594 0,1.25412 -0.61202,2.24779 -1.53125,2.48828 -3.10736,0.81199 -52.644297,0.58577 -54.843748,-0.25 -3.456846,-1.31422 -2.722439,-3.37374 1.916016,-5.39258 3.331899,-1.45043 5.973358,-1.80468 13.333982,-1.80468 6.76694,0 9.87107,-0.36866 11.81055,-1.40625 1.87177,-1.00211 5.28484,-1.45082 11.82031,-1.55664 1.24181,-0.0227 2.34273,-0.0285 3.32227,-0.0391 z m 344.92969,9.60352 c 35.00752,0 63.33402,28.32818 63.33398,63.33597 -1.13148,35.0135 -20.85415,62.9912 -63.33398,63.3359 -35.00761,0 -63.33594,-28.3284 -63.33594,-63.3359 0,-35.00779 28.32833,-63.33597 63.33594,-63.33597 z m 1093.62692,0.002 c 35.0076,0 63.3341,28.32829 63.334,63.33587 -1.1315,35.0136 -20.8541,62.9912 -63.334,63.3361 -35.0076,0 -63.3359,-28.3286 -63.3359,-63.3361 0,-35.00758 28.3283,-63.33587 63.3359,-63.33587 z m -328.1601,45.11133 v 0.006 c -0.7542,0.0151 -1.5505,0.0497 -2.3906,0.14453 H 722.72266 c -14.01593,-0.43748 -15.95635,10.54071 -15.3418,22.91991 -0.0533,7.2896 -0.0622,14.5795 -0.0195,21.8692 0.0457,5.9721 0.99882,8.2812 7.70117,8.2812 59.42192,0.1055 154.37157,0.105 301.91597,0.019 l 238.8145,-0.1347 c -0.06,-7.6558 0,-15.3124 0.1914,-22.9649 0.1092,-4.2887 0.258,-8.5885 0.4707,-12.8945 -0.1822,-8.5095 -2.0421,-17.37528 -13.3789,-17.2461 z"
         style="opacity:1;fill:#96c8af;fill-opacity:1;stroke-width:3.93917131" />
      <path
         sodipodi:nodetypes="cccccsccccccccccccccccsccccccsccccccccccccccscccccscccscccccc"
         inkscape:connector-curvature="0"
         id="path4712"
         d="m 138.6202,-133.4641 c -4.07603,-0.0283 -7.27449,0.33811 -9.52431,0.76864 -0.13766,0.53236 -0.28842,1.05575 -0.45306,1.5708 2.89891,0.0775 7.52978,0.21826 13.55598,1.14027 10.33476,1.58119 25.01486,5.92021 37.99906,17.06115 6.08173,5.2079 11.58251,11.76335 15.93251,19.490039 5.07233,9.009715 7.96396,18.510053 8.97526,27.584628 1.79383,15.969811 -2.19396,29.647987 -6.05114,38.58956 -0.99139,2.29819 -1.96224,4.31158 -2.85431,6.05332 h 3.00121 c 0.89469,-1.36009 1.82693,-2.89895 2.76996,-4.62944 4.86924,-8.935322 9.89132,-23.244043 8.38549,-40.53411 -0.48907,-5.563549 -1.66103,-11.279457 -3.57934,-16.957164 -0.3496,-1.093919 -0.70492,-2.03315 -1.22027,-3.34154 -1.25814,-3.212415 -2.7581,-6.400442 -4.51963,-9.528673 -4.69196,-8.33229 -10.71029,-15.34157 -17.3913,-20.83829 -14.30873,-11.75042 -30.16692,-15.57979 -41.08826,-16.28592 -1.39027,-0.0899 -2.70361,-0.13471 -3.93785,-0.14327 z m -13.86723,10.16208 c -0.51764,0.75688 -1.04075,1.45538 -1.53078,2.05145 1.27854,0.98567 2.71136,2.11243 4.32037,3.44918 6.04895,5.02538 13.96867,12.60012 20.75757,23.387166 3.39369,5.385202 6.36703,11.443209 8.69892,18.133773 2.52069,7.232272 4.01444,14.407576 4.74216,21.192452 1.31562,12.340383 0.0526,22.723113 -1.39553,30.201866 -0.287,1.48222 -0.57235,2.80155 -0.84647,4.02515 h 2.88049 c 0.3731,-0.98441 0.75034,-2.04709 1.12427,-3.20847 2.41451,-7.499422 4.50031,-18.403642 3.50808,-31.494871 -0.54204,-7.209001 -2.00905,-14.864764 -4.6978,-22.568335 -2.48637,-7.123736 -5.75999,-13.549422 -9.5374,-19.191162 -7.54744,-11.257679 -16.43745,-18.713569 -23.2679,-23.152259 -1.74487,-1.13387 -3.338,-2.06549 -4.75598,-2.82449 z m -23.7435,0.17451 c -1.795642,0.16324 -3.788252,0.43489 -5.976964,0.86538 -10.288895,2.02378 -24.932191,7.86688 -36.450097,21.37787 -4.856925,5.711482 -8.911192,12.552171 -11.692859,20.26598 -3.64202,10.099683 -4.633975,20.371607 -3.574248,29.740847 1.430537,12.537533 6.318097,22.57187 11.319795,29.67174 h 4.403274 c -4.600189,-7.20029 -9.40957,-17.518939 -10.496593,-30.196804 -0.748211,-8.618058 0.303798,-18.033504 3.64552,-27.306124 2.553103,-7.084306 6.20006,-13.398628 10.544587,-18.712639 10.244863,-12.56538 23.564884,-18.72135 33.107093,-21.53131 2.80038,-0.82465 5.301122,-1.40537 7.453212,-1.83549 -0.79652,-0.75435 -1.57052,-1.55226 -2.28272,-2.33945 z m 5.82788,5.26576 c -1.4694,1.78109 -3.16734,4.05612 -4.99377,6.88306 -5.186592,8.02776 -10.956704,19.912261 -13.811229,34.9375 -0.653902,3.446911 -1.141182,7.010212 -1.437697,10.673299 -1.453275,17.953378 2.021977,33.385242 6.227125,44.317838 0.0277,0.072 0.0559,0.13783 0.08363,0.20943 1.037789,0 3.007869,-3.3e-4 4.118199,0 -0.14252,-0.48399 -0.2853,-0.96847 -0.42832,-1.4719 -3.095774,-10.896479 -5.769698,-25.564018 -4.391642,-42.601568 0.281086,-3.475245 0.716838,-6.856029 1.287893,-10.133007 2.489169,-14.306971 7.336491,-25.838012 11.516871,-34.113562 1.65389,-3.27404 3.05761,-5.81871 4.21857,-7.92224 -0.0373,-0.006 -0.0683,-0.01 -0.10618,-0.016 -1.22697,-0.20263 -1.57728,-0.281 -2.28345,-0.76284 z"
         style="fill:#a05a2c;fill-opacity:1;stroke:none;stroke-width:0.37233302px;stroke-linecap:butt;stroke-linejoin:miter;stroke-opacity:1" />
      <path
         inkscape:connector-curvature="0"
         id="path4579"
         d="m 113.17126,-116.70664 c -1.4719,-0.0383 -2.52248,-0.14002 -4.0508,-0.39238 -1.60707,-0.26539 -1.69588,-0.30404 -3.07336,-1.33729 -3.5707,-2.67839 -7.946002,-7.63557 -8.374482,-9.48822 -0.2204,-0.95296 -0.23025,-4.88764 -0.0212,-8.45286 0.3571,-6.08909 0.65394,-8.90726 1.29033,-12.25036 1.458302,-7.66082 3.477842,-13.09398 6.934792,-18.65664 2.24642,-3.61476 5.4147,-7.48158 8.29368,-10.12224 l 0.61847,-0.56729 0.9676,0.3629 c 1.36223,0.51089 4.62077,2.6026 5.76768,3.70239 2.06774,1.98277 3.4886,4.00543 4.44927,6.33372 l 0.54684,1.32532 -0.83752,3.70547 c -0.91084,4.02987 -1.03593,4.72768 -1.29815,7.24207 -0.49236,4.7212 0.0386,9.06239 1.53461,12.54845 0.42086,0.98067 1.26158,2.66045 1.86828,3.73286 0.61671,1.09009 1.26214,2.45402 1.46379,3.09327 0.35784,1.13438 0.35755,1.15649 -0.0374,2.78536 -0.78644,3.24357 -2.03518,6.10874 -3.96225,9.09113 -1.3924,2.15495 -2.93706,4.01579 -3.78415,4.55875 -1.7734,1.13667 -3.5071,1.85488 -5.62474,2.33011 -1.153,0.25831 -2.35499,0.46374 -2.67132,0.45552 z"
         style="fill:#bd951b;fill-opacity:1;stroke-width:0.15913245" />
      <path
         style="opacity:1;fill:#1a1a1a;fill-opacity:1;stroke-width:1.11762834"
         d="m 126.368,28.870599 c -20.59635,0 -37.263362,16.666432 -37.263362,37.26285 0,20.596278 16.667012,37.263361 37.263362,37.263361 24.99256,-0.20278 36.59611,-16.663459 37.2618,-37.263361 3e-5,-20.596418 -16.66548,-37.26285 -37.2618,-37.26285 z m 289.35546,5.29e-4 c -20.59636,0 -37.26336,16.666432 -37.26336,37.262824 0,20.596277 16.667,37.263358 37.26336,37.263358 24.99257,-0.20275 36.59611,-16.663456 37.2618,-37.263358 3e-5,-20.596392 -16.66547,-37.262824 -37.2618,-37.262824 z M 126.368,35.220599 c 17.08648,0 30.91182,13.826291 30.9118,30.91285 -0.55225,17.089358 -10.17827,30.745112 -30.9118,30.913361 -17.08648,0 -30.913362,-13.826993 -30.913362,-30.913361 0,-17.086559 13.826882,-30.91285 30.913362,-30.91285 z m 289.35546,5.29e-4 c 17.08648,0 30.91183,13.826291 30.9118,30.912824 -0.55224,17.089358 -10.17828,30.745112 -30.9118,30.91336 -17.08647,0 -30.91336,-13.826966 -30.91336,-30.91336 0,-17.086533 13.82689,-30.912824 30.91336,-30.912824 z M 126.36748,49.375807 c -2.89451,0 -5.61669,0.731965 -7.99124,2.021065 -0.19498,0.10583 -0.38646,0.216929 -0.5762,0.330729 -0.17688,0.105331 -0.35026,0.215688 -0.52244,0.327628 -0.0118,0.008 -0.0239,0.01503 -0.0357,0.02273 -0.2146,0.140308 -0.42648,0.284266 -0.63459,0.433565 -4.23685,3.039559 -6.9975,8.003717 -6.9975,13.621927 0,9.262321 7.4952,16.757623 16.75763,16.757623 11.23946,-0.0912 16.45774,-7.493661 16.75712,-16.757623 1e-5,-9.26251 -7.49472,-16.757653 -16.75712,-16.757653 z m 289.35545,5.29e-4 c -2.89451,0 -5.61668,0.731965 -7.99123,2.021065 -0.19498,0.105831 -0.38645,0.216929 -0.57619,0.330729 -0.1769,0.105331 -0.35028,0.215688 -0.52244,0.327628 -0.0119,0.008 -0.0241,0.01503 -0.0357,0.02273 -0.2146,0.140311 -0.42648,0.284266 -0.63458,0.433565 -4.23685,3.03956 -6.99751,8.003717 -6.99751,13.621901 0,9.262348 7.4952,16.757649 16.75762,16.757649 11.23948,-0.0912 16.45775,-7.493687 16.75712,-16.757649 3e-5,-9.262483 -7.49472,-16.757626 -16.75712,-16.757626 z"
         id="path4583"
         inkscape:connector-curvature="0" />
      <path
         inkscape:connector-curvature="0"
         id="path4561"
         transform="matrix(0.26458333,0,0,0.26458333,0,-203)"
         d="m 477.61133,900.36133 c -64.57886,0 -116.83789,52.25685 -116.83789,116.83597 0,64.5786 52.25903,116.8379 116.83789,116.8379 78.36295,-0.6359 114.74479,-52.248 116.83203,-116.8379 7e-5,-64.57912 -52.25321,-116.83597 -116.83203,-116.83597 z m 1093.62697,0.002 c -64.5789,0 -116.8379,52.25685 -116.8379,116.83587 0,64.5787 52.259,116.8379 116.8379,116.8379 78.3629,-0.6359 114.7448,-52.248 116.832,-116.8379 10e-5,-64.57902 -52.2532,-116.83587 -116.832,-116.83587 z m -1093.62697,28.998 c 48.54958,0 87.8321,39.28613 87.83203,87.83597 -1.56915,48.5578 -28.91974,87.3579 -87.83203,87.8359 -48.54955,0 -87.83789,-39.2866 -87.83789,-87.8359 0,-48.54984 39.28834,-87.83597 87.83789,-87.83597 z m 1093.62697,0.002 c 48.5496,0 87.8321,39.28613 87.832,87.83587 -1.5691,48.5579 -28.9197,87.358 -87.832,87.8361 -48.5496,0 -87.8379,-39.2868 -87.8379,-87.8361 0,-48.54974 39.2883,-87.83587 87.8379,-87.83587 z M 447.40625,961.5 c -0.73693,0.40003 -1.46061,0.81993 -2.17773,1.25 0.71648,-0.43177 1.44095,-0.84997 2.17773,-1.25 z m 1093.62695,0.002 c -0.7369,0.40003 -1.4606,0.81993 -2.1777,1.25 0.7165,-0.43177 1.4409,-0.84997 2.1777,-1.25 z m -1095.95898,1.3418 c -0.65968,0.39832 -1.3115,0.80898 -1.95508,1.23047 0.64464,-0.41957 1.29634,-0.83086 1.95508,-1.23047 z m 1093.62698,0.002 c -0.6597,0.39833 -1.3115,0.80898 -1.9551,1.23047 0.6446,-0.41956 1.2963,-0.83086 1.9551,-1.23047 z m -1095.87893,1.42383 c -0.70889,0.4698 -1.41124,0.94805 -2.10157,1.44336 0.69037,-0.49531 1.39098,-0.97545 2.10157,-1.44336 z m 1093.62693,0.002 c -0.7089,0.4698 -1.4112,0.94806 -2.1015,1.44336 0.6903,-0.4953 1.3909,-0.97545 2.1015,-1.44336 z"
         style="opacity:1;fill:#ffffff;fill-opacity:1;stroke-width:4.22410727" />
      <path
         inkscape:connector-curvature="0"
         id="path4677"
         transform="matrix(0.26458333,0,0,0.26458333,0,-203)"
         d="m 378.22656,1152.9355 c -11.37437,0.1747 -23.29465,4.5777 -34.13476,14.7403 -6.37653,6.3765 -12.75237,13.3911 -19.12891,21.043 -12.11541,16.5789 -21.04245,35.7082 -28.05664,54.8378 -3.82592,11.4778 -7.65166,23.5936 -12.11523,35.709 -5.73888,-0.6377 -11.47894,-1.2755 -17.85547,-2.5508 -11.47776,-1.2753 -22.9549,-0.6364 -35.07032,3.1895 -21.04256,6.3765 -28.05732,30.6063 -23.59375,43.3594 1.91296,5.1012 5.10207,6.3778 12.75391,4.4648 -1.27531,-1.9129 -1.27445,-3.8263 -1.91211,-6.3769 -4.46357,-17.2167 6.37617,-33.7971 24.23047,-36.3477 14.02837,-2.5506 26.78107,3e-4 38.89648,3.8262 -1.2753,6.3765 -2.55086,12.7543 -3.82617,19.1308 -6.37653,25.5061 -15.30282,89.908 -16.57812,115.4141 -1.91296,27.4191 -2.5518,55.4755 -3.18946,82.8945 0,5.1013 0.63876,10.8402 1.91407,15.9414 0.63765,4.4636 5.10096,7.6533 10.83984,7.0157 4.46358,-0.6377 5.73837,-1.9136 7.01367,-8.9278 3.18827,-20.4049 9.56496,-40.8099 17.2168,-61.2148 8.92715,-24.8685 21.0432,-47.8246 39.53516,-68.8672 3.82592,-3.8259 7.65072,-7.6518 12.75195,-13.3906 0,4.4636 -0.63672,6.3771 -0.63672,8.9277 -1.27531,13.3907 -3.18954,27.4198 -4.46484,40.8106 -1.27531,16.579 -0.6374,33.1572 3.82617,48.4609 1.91296,5.7389 5.10181,10.8401 8.92773,14.666 7.65184,6.3765 15.94199,7.0152 24.86914,0.6387 5.73888,-4.4636 11.47783,-9.5648 15.94141,-14.666 3.95718,-4.8704 7.6143,-10.0368 10.99023,-15.3496 0.65893,2.5867 1.4943,5.0081 2.51953,7.0585 6.37652,14.0284 23.59264,15.9416 36.34571,3.8262 6.37651,-6.3765 12.11471,-13.3911 19.1289,-21.043 v 14.0293 c -0.63764,12.1155 -0.63638,23.5925 4.46485,33.795 1.91293,4.4636 5.10183,8.928 8.92773,12.7539 10.20246,8.2895 21.67933,6.3752 31.24414,-4.4649 2.55062,-1.9129 3.82535,-4.462 5.73828,-6.375 2.92752,-4.2582 5.70969,-8.6043 8.3711,-13.0117 -2.92625,20.0658 -5.85304,40.1315 -8.7793,60.1973 0.63765,1.2753 1.27539,2.5508 1.27539,3.8261 -1.27532,9.5648 -2.54982,19.1296 -3.1875,29.3321 -0.63764,15.3037 -1.9131,31.2451 -2.55078,46.5488 -0.63764,5.7389 -0.63764,10.8402 0,15.9414 0.63768,1.913 1.9132,4.4639 3.82617,5.1016 9.56482,1.9129 16.57922,1.9132 18.49219,-10.8399 0,-1.9129 -9.3e-4,-3.8273 0.63672,-5.7402 2.55061,-19.1296 4.46316,-38.8958 8.28906,-58.0254 0.63768,-6.3765 2.55187,-13.391 4.46484,-19.7676 10.84011,-31.245 21.67878,-61.8525 36.98243,-91.8222 12.11542,-23.5932 26.14378,-46.5483 43.99804,-68.2286 3.1883,-3.8259 7.01494,-7.0139 11.47852,-10.8398 5.73887,18.492 -3.18823,70.7785 -14.66602,87.3574 -6.37651,2.5506 -14.02774,5.1007 -20.40429,7.0137 -11.47775,4.4636 -18.49339,12.7547 -21.68164,24.2324 -1.91297,8.2895 2.55042,16.5781 12.11523,16.5781 7.65184,0.6377 14.66744,-1.2757 21.68164,-6.3769 3.82594,-2.5506 7.01394,-5.7375 10.83985,-8.9258 8.28948,-8.2895 14.66645,-18.4928 21.04296,-28.6953 1.27533,-3.1883 3.82542,-5.7384 7.01368,-7.0137 22.95552,-10.2024 41.44631,-24.8694 56.75,-43.3613 -3.82591,15.9413 -7.65149,32.5206 -9.56446,49.0996 -1.27529,3.1883 -2.55078,7.0149 -2.55078,10.2031 -2.55061,15.3037 -4.46306,31.2452 -7.01367,46.5489 0,2.5506 0.63867,4.463 0.63867,7.0136 -5.10123,33.7957 -8.92876,66.9544 -9.5664,100.75 -0.63765,12.7531 -1.91119,25.5058 -2.54883,38.8965 0,1.913 -0.002,3.8253 1.27343,5.7383 -0.63768,1.2753 1.27546,2.5508 2.55079,2.5508 8.28948,3.1882 14.02936,-0.6383 15.30468,-10.2031 0.63765,-6.3766 -8.2e-4,-13.3891 1.91211,-19.7657 3.1883,-22.9555 7.01487,-45.9116 10.20313,-68.8672 1.91297,-13.3907 4.46415,-26.7811 8.92773,-40.1718 9.56478,-26.7815 18.4921,-52.9255 31.88281,-78.4317 11.47775,-22.3179 23.59297,-44.6369 41.44727,-63.1289 6.37652,-7.0142 12.75159,-13.3899 22.31641,-17.8535 5.73887,25.5061 -1.27378,51.6501 -6.375,77.1563 -3.82591,1.2752 -7.65159,1.9121 -10.83985,3.1875 -14.66604,4.4635 -23.59398,13.3915 -27.41992,27.4199 -3.18826,9.5648 1.9137,17.2168 11.47852,17.2168 6.37651,0.6376 12.11464,-0.6379 17.85351,-3.8262 8.92713,-5.1012 16.57846,-10.8394 21.67969,-19.1289 5.73887,-7.0142 10.20346,-15.3043 15.30469,-23.5938 14.52886,-3.1336 26.25168,-9.4564 35.97656,-18.2714 0.30555,8.8436 2.00371,17.198 5.50977,24.6484 8.28948,19.1296 27.41897,21.0419 42.72265,4.4629 7.65184,-7.0142 13.39199,-14.0279 19.13086,-21.6797 11.4206,-14.593 22.83917,-29.8167 34.25977,-44.416 -1.8558,9.279 -3.71061,18.557 -5.56641,27.8359 -4.46358,24.2309 -8.28946,48.4626 -14.66602,72.6934 -5.10122,18.492 -12.11491,36.3459 -21.67968,53.5625 -2.55062,4.4636 -5.73954,6.377 -10.20313,7.6523 -23.59317,5.1013 -47.18612,5.7381 -70.7793,3.1875 -20.40491,-2.5506 -40.809,-6.3762 -61.85156,-9.5644 -14.02839,-2.5506 -28.05764,-5.1015 -43.36133,-3.8262 -6.37655,0 -12.11464,1.2765 -17.85351,3.1895 -9.56481,3.1883 -14.66715,10.2008 -16.58008,19.7656 -1.91297,12.1154 0.63901,22.9567 5.74024,32.5215 10.20245,17.8543 26.78053,28.057 45.91015,34.4336 19.76723,6.3765 40.81,7.0144 62.49024,3.8261 48.46163,-8.2895 90.54616,-31.2457 124.34179,-70.1425 5.10123,-5.7389 8.92814,-13.391 15.30469,-18.4922 6.37652,-5.1013 14.66549,-7.6526 21.67969,-11.4785 22.95556,-12.7531 43.36046,-28.6938 59.93946,-49.7364 11.4778,-14.0284 21.0432,-29.9699 24.8691,-47.8242 3.1883,-10.8401 3.8244,-21.6804 6.375,-33.1582 0,-0.6376 -0.6367,-0.6377 -0.6367,-1.2754 0,-3.8259 -1.9124,-5.7391 -7.0137,-3.8262 -3.1882,27.4191 -10.8411,54.2008 -29.9707,78.4317 -17.8543,23.5931 -40.1717,42.0859 -68.22848,56.7519 1.27533,-3.1882 1.91314,-3.8252 2.55078,-4.4629 9.56482,-18.4919 17.21611,-37.6223 21.67969,-56.7519 4.46351,-15.9413 7.65171,-31.8829 12.11521,-47.8242 5.1013,-21.0426 8.2893,-42.0844 10.8399,-63.127 1.2753,-7.6518 0.6386,-15.3052 0.6386,-22.957 -0.6376,-7.0142 -6.3773,-8.9259 -12.7539,-10.2012 -5.7388,-0.6376 -10.2013,2.5511 -12.75192,7.6524 -3.82594,5.1012 -6.37613,10.2025 -8.28906,15.9414 -3.18826,7.6518 -7.01504,14.6655 -12.75391,21.6796 -15.30368,19.7673 -31.24514,40.809 -46.54883,60.5762 -5.73887,6.3766 -11.47689,11.4789 -16.57812,16.5801 -2.55061,2.5506 -6.37821,5.1005 -10.8418,4.4629 0,-1.913 -0.63672,-3.8262 -0.63672,-5.1016 1.27529,-7.0141 1.91222,-14.6655 3.1875,-21.6797 3.82594,-14.666 8.29125,-29.9707 12.11719,-44.6367 1.91297,-7.0142 3.82428,-14.0268 5.09961,-21.041 1.27529,-10.8401 -12.75262,-17.8541 -22.95508,-12.1152 -1.91297,1.2753 -3.18859,3.1875 -5.10156,4.4629 -1.27529,2.5505 -2.55088,4.463 -3.82617,7.0136 -8.28953,16.579 -13.39073,34.4338 -14.66602,51.6504 -0.0522,0.5482 -0.0931,1.0928 -0.13672,1.6387 -9.00556,10.4094 -20.56688,17.8256 -34.33593,22.5918 2.55061,-7.0142 3.82623,-13.39 5.10156,-19.1289 3.18826,-14.6661 7.01449,-28.6953 5.10156,-43.3613 -2.55061,-18.492 -10.84108,-24.8672 -29.9707,-24.8672 h -1.91211 c -8.28949,0 -14.66549,3.1878 -21.67969,8.289 -2.55061,3.1883 -6.37811,6.3762 -9.5664,9.5645 -15.94133,18.4919 -28.05639,39.5346 -38.89649,61.2148 -8.28949,15.3037 -14.66641,30.6074 -21.04297,45.2735 0.63765,-3.826 0.63874,-7.6517 1.91406,-12.1153 3.82591,-15.9413 7.65165,-31.8838 12.11524,-48.4629 4.46355,-16.5789 10.20247,-33.7951 14.66601,-51.0117 1.91297,-5.7389 3.82535,-12.1156 5.73829,-18.4922 1.91297,-7.0142 6.5e-4,-13.3907 -4.4629,-14.666 -9.56481,-2.5506 -19.12924,-1.9123 -24.23046,8.9278 -2.55062,4.4635 -4.46399,9.5637 -6.37696,14.0273 -3.18826,8.9271 -6.37712,17.855 -8.92773,26.1445 -5.10123,7.0142 -9.56386,14.0278 -15.30274,20.4043 -5.10122,7.6519 -12.11573,14.6674 -19.76757,20.4063 -8.28949,5.7389 -15.94198,12.1144 -24.86914,15.3027 v -1.2754 c 0,-1.2753 6e-5,-2.5498 1.27539,-3.1875 7.65184,-19.1296 12.11622,-38.2601 12.7539,-58.0273 0.63765,-5.7389 -1.27648,-11.4769 -3.18945,-16.5781 -1.91293,-5.1013 -6.37533,-8.2902 -11.47656,-10.2032 -12.11543,-3.8259 -24.86882,-0.6369 -34.4336,10.2032 -1.27532,1.9129 -3.18859,3.8253 -5.10156,5.7382 -15.94133,18.492 -29.96849,38.8969 -40.80859,59.9395 -5.73888,10.2024 -10.84018,20.405 -15.94141,30.6074 0,-7.0142 1.91221,-13.3911 3.1875,-19.7676 3.18826,-12.1154 5.10179,-23.5916 8.92774,-35.707 4.46354,-16.579 9.56375,-32.5206 14.02734,-49.0996 1.27529,-7.0142 1.91314,-14.0288 2.55078,-21.043 0.63764,-3.1883 7.6e-4,-5.1016 -3.1875,-6.3769 -7.0142,-4.4636 -19.76699,-1.2749 -25.50586,6.3769 -3.18826,5.1013 -5.73937,10.8402 -7.65234,15.9414 -9.5427,28.6281 -17.81384,57.2563 -22.91797,86.5176 -3.1182,6.0724 -6.23915,12.1482 -9.19336,18.0566 -5.10123,9.5649 -10.84035,19.7682 -18.49219,28.6954 -3.8259,3.1883 -7.01503,7.0147 -12.7539,8.9277 -0.63769,-4.4636 -1.91314,-8.928 -2.55079,-12.7539 0,-18.492 3.82651,-37.6223 8.92774,-55.4766 3.8259,-15.3037 8.92704,-29.9687 13.39062,-44.6347 1.27533,-1.913 1.27447,-4.4641 1.91211,-6.377 1.27529,-4.4636 -0.63592,-7.6515 -3.82422,-9.5644 -3.8259,-1.913 -7.01483,-3.1886 -10.20312,-3.8262 -5.10119,-0.6377 -7.01384,0.638 -9.56445,5.1015 -1.91297,3.826 -3.82731,7.013 -5.74024,10.2012 -1.27532,-0.6376 -2.54992,-1.2734 -4.46289,-1.2734 -19.12962,-7.6519 -36.34654,0 -49.09961,12.7519 -12.71293,12.713 -19.68988,27.6315 -22.05859,44.0137 -0.1286,0.2065 -0.24819,0.4176 -0.37891,0.623 -6.37655,11.4778 -12.75252,22.9548 -21.67969,32.5196 -3.18825,3.1882 -5.73956,6.3771 -10.20312,8.9277 -5.73888,3.1883 -8.92587,2.5494 -10.20117,-3.1894 -1.27531,-2.5507 -1.27539,-5.7385 -1.27539,-8.2891 0,-10.2025 -9.4e-4,-19.7663 0.63672,-29.9688 2.55061,-17.2166 5.10172,-35.0714 7.65234,-52.9257 0.63765,-4.4636 0.63765,-9.5657 0,-14.0293 0,-5.7389 -2.55104,-9.5637 -6.37695,-12.752 -9.56481,-6.3765 -19.76732,-6.3774 -30.60743,1.9121 -15.94133,12.1155 -28.69505,28.0568 -39.53515,45.2735 -3.82592,7.6518 -8.2894,15.942 -13.39063,24.8691 4.46358,-32.5203 22.31878,-130.7195 28.69532,-142.1973 h 1.9121 c 1.91296,0 3.82728,0.6387 5.74024,0.6387 17.21664,1.913 34.43281,2.5496 52.28711,-0.6387 12.75308,-2.5506 23.59246,-7.651 33.79492,-16.5781 14.02836,-13.3907 21.67992,-29.9699 25.50586,-47.8242 3.18826,-14.666 0.63936,-28.6952 -3.82422,-42.0859 -3.8259,-10.8401 -9.56512,-20.4037 -19.76758,-26.1426 -8.0703,-5.3802 -17.68253,-8.5194 -27.71875,-8.3653 z m 1110.28324,12.0977 c -6.0067,0.1133 -11.5866,2.4843 -17.166,5.832 -7.6519,4.4636 -12.7523,10.8394 -17.8536,17.8536 -5.7388,8.2894 -10.8401,16.5797 -14.666,26.1445 -20.4049,41.4475 -35.7097,84.1708 -47.1875,127.5312 -7.0141,29.9698 -14.6651,62.4884 -15.3027,93.0957 v 1.2754 c -0.3369,3.032 -0.5703,6.0432 -0.7129,9.0391 -3.7105,7.2354 -7.4692,14.5186 -10.9941,21.5683 -5.1012,9.5649 -10.8404,19.7682 -18.4922,28.6954 -3.8259,3.1883 -7.015,7.0147 -12.7539,8.9277 -0.6377,-4.4636 -1.9112,-8.928 -2.5489,-12.7539 0,-18.492 3.8246,-37.6223 8.9258,-55.4766 3.8259,-15.3037 8.9271,-29.9687 13.3906,-44.6347 1.2754,-1.913 1.2765,-4.4641 1.9141,-6.377 1.2753,-4.4636 -0.6379,-7.6515 -3.8262,-9.5644 -3.8259,-1.913 -7.0148,-3.1886 -10.2031,-3.8262 -5.1012,-0.6377 -7.0138,0.638 -9.5644,5.1015 -1.913,3.826 -3.8254,7.013 -5.7383,10.2012 -1.2753,-0.6376 -2.5519,-1.2734 -4.4649,-1.2734 -19.1296,-7.6519 -36.3446,0 -49.0976,12.7519 -11.3876,11.3876 -18.1778,24.5428 -21.1739,38.9356 -1.8096,2.1679 -3.62,4.302 -5.4296,6.3379 -10.8401,11.4778 -23.5918,18.4925 -36.9825,23.5937 -7.6518,-5.7389 -14.6664,-11.4789 -21.0429,-17.8555 0,-8.2895 -10e-4,-17.2154 -0.6387,-26.1425 0,-3.8259 1.9133,-7.0149 5.1016,-10.2032 28.0567,-29.332 51.0129,-62.4896 70.1425,-97.5605 15.9414,-28.6944 28.6936,-58.0265 32.5196,-89.2715 0.6376,-10.8401 0.6374,-21.6813 -3.8262,-31.2461 -5.1012,-10.2024 -14.0272,-14.6659 -26.1426,-13.3906 -12.1154,1.2753 -22.3189,6.3765 -31.2461,14.666 -10.2024,8.9271 -18.4907,19.1306 -24.8672,29.9707 -10.2024,16.579 -17.8558,34.4328 -24.2324,52.2871 -17.2166,49.0993 -28.0566,98.1996 -26.7812,148.5742 0,4.4636 0.6386,9.5639 0.6386,15.3028 -4.4636,0.6376 -8.2893,0.6387 -12.1152,1.914 -5.1012,1.2753 -10.2035,3.1868 -15.3047,6.375 -7.0142,4.4636 -7.6521,12.1166 -3.8262,17.8555 1.913,2.5506 3.8274,5.1017 7.0157,6.377 7.0142,2.5506 13.3901,5.1007 20.4043,7.0136 2.5506,1.2754 6.3762,1.2745 9.5644,1.9121 2.5506,7.6519 4.4631,14.6656 7.0137,21.6797 5.1012,12.1155 10.2037,23.5943 19.1308,32.5215 4.4636,4.4636 8.9273,7.6524 15.9414,7.6524 6.3766,0 14.0276,-3.1889 16.5782,-8.9278 2.5506,-4.4635 5.1015,-9.5648 5.1015,-14.666 0.6377,-14.0284 -3.1889,-27.4187 -10.2031,-38.8965 -1.2753,-3.1883 -3.1886,-6.3772 -5.1016,-10.2031 14.3696,-6.2637 26.5995,-14.6697 37.0801,-25.0684 -0.1251,1.5445 -0.2264,3.0965 -0.2754,4.6641 0.6377,5.1012 1.9133,10.2014 3.8262,14.0273 6.3766,14.0284 23.5927,15.9416 36.3457,3.8262 6.3766,-6.3765 12.1167,-13.3911 19.1309,-21.043 v 14.0293 c -0.6377,12.1155 -0.6384,23.5925 4.4629,33.795 1.9129,4.4636 5.1018,8.928 8.9277,12.7539 10.2025,8.2895 21.6793,6.3752 31.2441,-4.4649 2.5507,-1.9129 3.8273,-4.462 5.7403,-6.375 6.5392,-9.5116 12.3773,-19.4425 17.6601,-29.5918 0.6858,5.6288 1.6794,11.2338 2.9727,16.8379 1.9129,9.5648 4.4642,18.4918 10.2031,26.7813 8.2895,12.1154 23.5929,15.9417 40.1719,6.3769 7.0142,-3.8259 12.7533,-9.5649 18.4922,-15.9414 17.2677,-19.8841 29.8091,-42.7717 42.2109,-65.4961 1.1458,9.678 2.9644,19.1629 5.5938,28.5117 4.4635,17.2167 10.8387,33.7958 23.5918,46.5489 16.5789,17.8543 38.2595,25.5063 65.041,17.2168 16.5789,-5.1013 30.6081,-15.3036 42.0859,-28.0567 33.158,-34.4332 51.6487,-73.9667 55.4746,-117.9648 1.2753,-11.4778 -0.636,-23.5944 -5.0996,-33.7969 -1.9129,-6.3765 -5.7396,-12.1155 -11.4785,-15.9414 -11.4778,-7.6518 -27.4187,-5.7375 -38.8965,5.7402 -6.3765,5.739 -10.2033,12.1138 -12.7539,19.7657 -3.8259,10.8401 -2.5496,21.6812 0.6387,31.2461 2.5506,5.7388 5.7378,6.3767 14.0273,3.8261 l -3.1875,-3.1894 c 0,-1.2753 -0.6387,-2.5499 -0.6387,-3.1875 -1.2752,-16.579 3.8271,-31.8837 16.5801,-44.6367 6.3765,-7.0142 12.7533,-7.0142 18.4922,0 3.1883,5.1012 5.7384,10.8412 7.0137,16.58 5.1012,17.2167 2.5494,35.7082 -3.1895,53.5625 -7.6518,26.1438 -19.1291,49.7378 -37.6211,71.418 -10.8401,12.1154 -22.955,22.9546 -37.6211,29.9688 -24.8684,12.1154 -38.2596,8.2906 -50.375,-12.752 -6.3765,-10.8401 -8.9259,-22.3182 -11.4765,-34.4336 -3.1883,-22.9555 -2.5517,-45.9107 -0.6387,-69.5039 0,-3.8259 1.9133,-7.0158 5.1016,-9.5664 27.4191,-28.6944 52.925,-58.6624 72.0547,-93.0957 12.753,-22.3179 24.2309,-43.9986 31.8828,-67.5918 4.4636,-10.2025 6.3759,-21.0427 5.7383,-31.8828 -0.6377,-9.5648 -3.8258,-17.8539 -12.1153,-22.9551 -7.6518,-4.4636 -15.9411,-5.1025 -25.5058,-4.4648 -10.2025,0.6376 -19.1305,5.7397 -27.42,12.7539 -10.2024,7.6518 -17.854,17.8542 -25.5058,28.0566 -31.8827,45.2734 -48.4615,93.7358 -57.3887,144.7481 -3.1883,15.9413 -4.4638,31.8809 -3.8262,47.8222 -0.1771,6.1981 -0.1479,12.2956 0.096,18.3106 -4.4505,7.6955 -9.1555,15.6955 -13.4648,23.7754 -12.1154,19.7672 -24.2325,39.5343 -40.1738,57.3886 -5.7389,6.3765 -12.7526,11.4778 -21.6797,14.666 -8.2895,-4.4635 -10.8399,-12.1148 -12.1153,-20.4042 -1.2752,-11.4778 -0.6386,-24.2304 0.6368,-36.3458 2.5506,-21.0425 8.2912,-42.0863 12.1172,-63.1289 5.1012,-5.1012 9.5647,-9.5647 14.666,-14.666 26.1438,-24.8685 48.4611,-52.9258 66.9531,-83.5332 16.579,-28.6944 30.6076,-58.6632 33.1582,-91.1836 1.2753,-7.6518 0,-15.9409 -1.9141,-22.9551 -4.4636,-13.3907 -13.3896,-21.0438 -28.6933,-20.4062 h -7.6524 c -0.8767,-0.08 -1.7434,-0.108 -2.6015,-0.092 z m -1100.02152,1.7656 c 4.38387,-0.08 8.5286,2.1536 12.99219,6.6172 9.56481,8.9271 14.02843,20.4042 15.94141,33.7949 2.55061,19.7673 -2.5507,38.26 -15.94141,55.4766 -8.28949,11.4778 -19.12879,18.4914 -32.51953,21.6797 -19.12961,4.4635 -36.9847,2.5506 -56.75196,0 6.37654,-19.1296 13.39122,-36.9846 22.31836,-54.2012 7.01419,-14.666 14.66669,-28.6942 24.86914,-41.4472 3.82593,-5.1013 9.56479,-10.8402 14.66602,-14.6661 5.42004,-4.7824 10.04191,-7.1742 14.42578,-7.2539 z m 1109.63672,11.0801 c 6.3765,3.1883 10.2033,8.2904 12.7539,14.0293 1.913,6.3765 2.5498,13.3901 1.9121,20.4043 -1.913,28.0568 -12.7518,54.2 -26.1426,80.3437 -14.666,29.9697 -35.0718,56.1139 -59.3027,79.7071 -2.5506,1.9129 -4.464,3.8254 -7.6523,7.0137 2.5506,-9.5648 5.1017,-18.4918 7.6523,-26.7813 10.8401,-35.071 22.9559,-70.1409 35.709,-104.5742 7.6518,-19.1296 15.942,-37.6223 24.8691,-55.4766 3.1883,-5.1012 5.7376,-9.5648 10.2012,-14.666 z m 116.0332,7.6523 c 3.8259,3.1883 5.1017,7.6508 6.377,12.752 1.9129,9.5648 0.6365,19.7672 -1.9141,29.332 -5.1012,19.1296 -14.0269,37.6223 -22.3164,55.4766 -15.9413,31.8827 -36.984,61.2156 -61.2149,87.3594 -1.2752,1.9129 -3.1896,3.1866 -5.7402,5.0996 1.913,-10.2025 3.1896,-19.1286 5.7402,-28.6934 3.826,-14.0284 7.6517,-28.0565 12.1153,-41.4472 11.4778,-35.7086 27.4194,-69.505 49.0996,-100.75 4.4636,-7.0142 10.2017,-14.0277 17.8535,-19.129 z m -348.4277,7.7305 c 3.1085,-0.08 5.9777,2.1522 9.166,7.5723 2.5506,4.4636 3.1885,10.2034 3.8262,15.3047 1.9129,15.9413 -2.5512,31.8828 -7.6524,47.8242 -13.3907,41.4475 -36.3455,79.0677 -63.1269,114.1387 -5.1013,5.7388 -10.2025,10.8412 -14.6661,16.58 -0.6376,1.2754 -1.2746,1.9123 -4.4628,4.4629 1.2753,-8.2895 1.2754,-14.6664 2.5507,-21.0429 3.1883,-26.7815 7.6509,-53.5624 15.3028,-80.3438 7.6518,-24.8685 16.5789,-49.7369 29.332,-73.3301 5.1012,-8.9271 10.8394,-17.2173 19.1289,-24.8691 4.1447,-3.8259 7.493,-6.2172 10.6016,-6.2969 z m -794.30667,203.4922 c 1.27531,0 2.23149,0.4786 2.86914,1.7539 3.18829,2.5506 2.5516,5.1008 0.63867,8.2891 -10.20246,17.2166 -21.04387,34.4335 -35.07226,49.0996 -2.55062,3.8259 -6.37534,7.0139 -11.47657,10.8398 -2.55061,-6.3765 -0.6386,-12.1166 0.63672,-17.8554 3.8259,-13.3908 9.56609,-26.1424 19.13086,-36.9825 5.10123,-6.3765 11.47607,-11.4786 18.49023,-14.0293 1.91298,-0.6376 3.5079,-1.1152 4.78321,-1.1152 z m 843.14647,0 c 1.2753,0 2.2335,0.4786 2.8711,1.7539 3.1883,2.5506 2.5497,5.1008 0.6367,8.2891 -10.2024,17.2166 -21.0419,34.4335 -35.0703,49.0996 -2.5506,3.8259 -6.3773,7.0139 -11.4785,10.8398 -2.5506,-6.3765 -0.6367,-12.1166 0.6387,-17.8554 3.8259,-13.3908 9.5641,-26.1424 19.1289,-36.9825 5.1012,-6.3765 11.478,-11.4786 18.4922,-14.0293 1.9129,-0.6376 3.5059,-1.1152 4.7812,-1.1152 z m -155.7265,54.041 c 1.2753,8.9272 2.5508,16.5797 3.8261,24.8692 -8.2895,1.2753 -21.6799,-3.8276 -25.5058,-9.5664 -3.1883,-5.1013 -0.6373,-10.839 5.1015,-12.752 5.1013,-1.2753 10.2016,-1.2755 16.5782,-2.5508 z m 29.9707,14.0274 7.6503,7.6523 c -3.1882,0.6377 -5.1008,1.2755 -8.289,2.5508 0,-3.8259 -10e-5,-6.3762 -1.2754,-9.5645 0.6377,0 1.2764,-0.6386 1.9141,-0.6386 z m -382.71294,7.0156 c -3.18826,12.1154 -8.92655,22.9546 -20.40429,31.2441 -4.46359,-12.1154 5.10065,-26.7805 20.40429,-31.2441 z m -184.91797,7.6504 c -7.01419,12.1154 -14.02996,22.3189 -24.23242,29.9707 -3.82594,-7.0142 -1.9127,-14.6664 3.82617,-19.7676 5.73888,-5.1012 12.75441,-7.6525 20.40625,-10.2031 z m 579.10741,0 c 14.6661,16.579 19.1302,47.1863 8.9278,58.664 -5.7389,-2.5506 -7.6526,-7.6516 -10.2032,-12.1152 -5.1012,-12.1154 -8.2891,-24.2303 -9.5644,-37.6211 v -5.7383 c 3.1883,-3.1882 7.0139,-3.1894 10.8398,-3.1894 z m -443.80662,90.9941 c 6.13741,-0.014 12.2747,1.0284 18.4121,1.4668 22.31789,3.1883 44.63627,7.0129 67.5918,10.2012 24.23085,2.5506 49.10025,2.5524 73.96875,-2.5488 h 6.375 c -7.65184,10.8401 -16.57879,19.7671 -26.78125,28.0566 -24.8685,21.0426 -52.92491,33.7952 -84.16992,37.6211 -26.14382,2.5506 -50.37524,-1.2765 -68.86719,-17.8555 -8.28948,-7.0142 -14.02744,-15.9411 -15.30273,-26.7812 -0.63765,-1.913 -0.63867,-4.4631 -0.63867,-7.0137 0.63764,-14.0284 7.01457,-20.4054 21.04296,-22.3184 2.78973,-0.5977 5.57941,-0.8219 8.36915,-0.8281 z"
         style="font-style:italic;font-variant:normal;font-weight:normal;font-stretch:normal;font-size:medium;line-height:1.25;font-family:BushelAndPeck;-inkscape-font-specification:'BushelAndPeck Italic';letter-spacing:0px;word-spacing:0px;fill:#1a1a1a;fill-opacity:1;stroke:none;stroke-width:3.3211112" />
    </g>
  </g>
</svg>
